<?xml version="1.0" encoding="iso-8859-1"?>
<!-- Generator: Adobe Illustrator 19.0.0, SVG Export Plug-In . SVG Version: 6.00 Build 0)  -->
<svg version="1.1" id="Capa_1" xmlns="http://www.w3.org/2000/svg" xmlns:xlink="http://www.w3.org/1999/xlink" x="0px" y="0px"
	 viewBox="0 0 512 512" style="enable-background:new 0 0 512 512;" xml:space="preserve">
<path style="fill:#ED7149;" d="M459.795,174.224C449.2,79.277,368.831,7.521,273.293,7.521h-5.272h-24.042h-5.272
	c-95.537,0-175.906,71.755-186.501,166.703c-2.56,22.946-3.475,48.691-2.049,77.486v126.54h193.822h24.042h193.822V251.709
	C463.27,222.915,462.356,197.17,459.795,174.224z"/>
<path style="fill:#D86344;" d="M461.846,251.708v126.545h-41.677V251.708c1.424-28.791,0.511-54.543-2.056-77.487
	C407.653,80.458,329.143,9.308,235.169,7.553c1.173-0.02,2.357-0.03,3.54-0.03h34.587c95.538,0,175.904,71.751,186.503,166.698
	C462.357,197.165,463.27,222.918,461.846,251.708z"/>
<path style="fill:#F3D1BB;" d="M105.699,147.362v89.585h-2.012c-16.125,0-29.197,13.072-29.197,29.197l0,0
	c0,16.125,13.072,29.197,29.197,29.197h2.077c1.888,58.266,49.71,104.921,108.433,104.921h21.643c0,3.588,0,6.39,0,6.4
	c0,9.706-0.123,9.424-9.392,10.73c-7.148,1.007-14.004,3.772-19.859,7.994c-11.585,8.355-18.594,22.027-18.594,36.312v42.783h136.01
	v-42.783c0-14.285-7.009-27.955-18.594-36.312c-5.853-4.222-12.711-6.988-19.859-7.994c-9.269-1.305-9.392-1.024-9.392-10.73
	c0-0.009,0-2.811,0-6.4h21.643c59.922,0,108.499-48.576,108.499-108.499V147.362H105.699z"/>
<path style="fill:#ECC19C;" d="M407.812,236.947h-1.506V128.334h-42.893v163.425c0,59.929-48.567,108.498-108.497,108.498h42.893
	c58.717,0,106.541-46.646,108.431-104.915h1.571c8.473,0,16.102-3.609,21.435-9.373c4.817-5.207,7.761-12.171,7.761-19.824l0,0
	C437.008,250.019,423.936,236.947,407.812,236.947z"/>
<path style="fill:#ED7149;" d="M331.907,78.502H180.094l0,0c-42.984,0-77.828,34.338-77.828,76.697v31.503
	c0,0,46.16,19.003,77.828-58.368c0,0,13.706,63.798,87.426,70.585l-20.606-35.292c0,0,30.941,36.65,87.426,35.292l-4.461-23.076
	c0,0,54.685,27.148,79.855,23.076v-43.72C409.736,112.841,374.891,78.502,331.907,78.502z"/>
<g>
	<circle style="fill:#E8979F;" cx="165.625" cy="334.619" r="16.645"/>
	<circle style="fill:#E8979F;" cx="346.372" cy="334.619" r="16.645"/>
</g>
<path style="fill:#8FBA1E;" d="M324.002,461.698v42.781H187.999v-42.781c0-14.289,7.004-27.958,18.586-36.31
	c3.74-2.698,7.889-4.799,12.265-6.227c2.47-0.807,5.019-1.404,7.599-1.772c3.78-0.534,6.039-0.792,7.388-1.584l1.733,0.384
	l4.368,2.47c9.874,5.6,21.943,5.639,31.855,0.109l4.635-2.58l1.733-0.384c1.349,0.792,3.607,1.051,7.388,1.584
	c2.58,0.369,5.129,0.965,7.599,1.772c4.376,1.427,8.525,3.529,12.265,6.227C316.999,433.74,324.002,447.41,324.002,461.698z"/>
<path d="M241.219,368.586c-0.978,0-1.97-0.192-2.926-0.597c-3.826-1.619-5.615-6.031-3.996-9.857
	c3.697-8.74,12.216-14.386,21.705-14.386c9.025,0,17.373,5.264,21.266,13.41c1.791,3.748,0.205,8.238-3.543,10.029
	c-3.746,1.793-8.237,0.205-10.029-3.543c-1.409-2.948-4.429-4.854-7.694-4.854c-3.432,0-6.514,2.043-7.852,5.205
	C246.935,366.863,244.15,368.586,241.219,368.586z"/>
<path d="M261.547,315.95h-11.095c-4.154,0-7.521-3.367-7.521-7.521v-29.894c0-4.154,3.367-7.521,7.521-7.521
	s7.521,3.367,7.521,7.521v22.373h3.574c4.154,0,7.521,3.367,7.521,7.521S265.701,315.95,261.547,315.95z"/>
<g>
	<path style="fill:#ED7149;" d="M174.102,262.622c-3.022,0-5.872-1.835-7.022-4.826c-1.49-3.877,0.445-8.228,4.323-9.718
		l32.699-12.564c3.875-1.489,8.228,0.446,9.718,4.323c1.49,3.877-0.445,8.228-4.323,9.718l-32.699,12.564
		C175.911,262.461,174.998,262.622,174.102,262.622z"/>
	<path style="fill:#ED7149;" d="M337.896,262.622c-0.898,0-1.809-0.161-2.696-0.502l-32.698-12.564
		c-3.878-1.49-5.813-5.841-4.323-9.718c1.49-3.878,5.842-5.811,9.718-4.323l32.698,12.564c3.878,1.49,5.813,5.841,4.323,9.718
		C343.769,260.787,340.918,262.622,337.896,262.622z"/>
</g>
<path d="M209.606,306.145c-4.154,0-7.521-3.367-7.521-7.521v-24.171c0-4.154,3.367-7.521,7.521-7.521s7.521,3.367,7.521,7.521
	v24.171C217.127,302.778,213.759,306.145,209.606,306.145z"/>
<path d="M302.393,306.145c-4.154,0-7.521-3.367-7.521-7.521v-24.171c0-4.154,3.367-7.521,7.521-7.521s7.521,3.367,7.521,7.521
	v24.171C309.914,302.778,306.548,306.145,302.393,306.145z"/>
<path d="M467.27,173.39C456.239,74.541,372.847,0,273.293,0h-34.585c-1.754,0-3.528,0.023-5.272,0.07
	c-4.153,0.11-7.429,3.567-7.318,7.719c0.11,4.153,3.581,7.404,7.719,7.318c1.611-0.043,3.249-0.065,4.87-0.065h34.585
	c91.882,0,168.847,68.792,179.027,160.015c2.66,23.841,3.336,49.506,2.011,76.28c-0.006,0.124-0.009,0.249-0.009,0.372v119.02
	h-71.526c0.802-0.862,1.595-1.735,2.373-2.624c2.735-3.127,2.416-7.878-0.711-10.613s-7.878-2.417-10.613,0.711
	c-19.194,21.949-46.91,34.537-76.042,34.537h-83.606c-55.679,0-100.977-45.298-100.977-100.977v-95.216
	c6.41,0.373,14.756-0.349,23.97-4.2c16.876-7.053,31.351-22.089,43.171-44.806c2.593,5.446,6.105,11.66,10.794,17.981
	c12.446,16.782,35.856,37.589,76.699,41.404c2.809,0.263,5.509-1.059,7.028-3.424c1.519-2.365,1.592-5.379,0.191-7.815l-1.94-3.371
	c14.73,7.888,34.554,14.683,59.146,14.681c1.081,0,2.18-0.013,3.279-0.04c2.209-0.054,4.282-1.076,5.669-2.795
	c1.388-1.719,1.949-3.961,1.536-6.131l-1.712-8.984c5.014,2.213,11.1,4.771,17.687,7.266c16.012,6.065,29.405,9.641,40.04,10.71
	l-0.221,88.319c0,0.402-0.961,13.019-2.259,18.772c-0.916,4.052,1.628,8.079,5.68,8.993c0.558,0.125,1.115,0.187,1.664,0.187
	c3.438,0,6.54-2.372,7.33-5.865c1.111-4.921,1.891-9.934,2.354-14.988c8.164-1.25,15.771-5.235,21.44-11.362
	c6.295-6.804,9.761-15.658,9.761-24.931c0-18.198-13.31-33.34-30.706-36.218v-23.624c3.053-1.356,4.936-4.634,4.369-8.085
	c-0.673-4.099-4.544-6.876-8.64-6.203c-18.632,3.065-60.642-15.357-75.253-22.712c-2.558-1.289-5.627-1.011-7.912,0.714
	c-2.286,1.725-3.395,4.598-2.859,7.411l2.736,14.361c-46.335-2.498-72.272-32.667-72.532-32.976
	c-2.498-3.001-6.875-3.594-10.078-1.363c-3.204,2.23-4.17,6.54-2.223,9.924l12.751,22.161c-21.041-4.891-38.01-15.777-50.577-32.484
	c-11.707-15.564-15.089-30.668-15.117-30.798c-0.686-3.237-3.406-5.646-6.702-5.935c-3.285-0.292-6.393,1.611-7.631,4.679
	c-6.234,15.454-14.354,31.007-26.58,42.609c-6.271,5.951-13.781,10.795-22.234,12.906c-4.219,1.054-9.119,1.681-13.388,0.674
	c-2.184-0.515-3.893-2.004-6.254-2.004c-0.785,0-1.541,0.121-2.253,0.345c-2.994-0.057-5.86,1.683-7.085,4.615
	c-1.248,2.986-0.418,6.313,1.818,8.398v37.303c-17.642,2.666-31.209,17.929-31.209,36.304c0,18.547,13.826,33.916,31.711,36.367
	c2.421,26.232,13.609,49.958,30.603,68.218H57.679V251.709c0-0.124-0.003-0.249-0.009-0.372
	c-1.326-26.774-0.649-52.439,2.011-76.279c7.828-70.149,56.305-129.531,123.5-151.284c3.951-1.279,6.118-5.519,4.839-9.472
	s-5.518-6.118-9.472-4.839C105.74,33.034,53.214,97.378,44.731,173.39c-2.743,24.584-3.448,50.995-2.095,78.504V378.25
	c0,4.154,3.367,7.521,7.521,7.521h96.131c19.105,13.839,42.568,22.011,67.909,22.011h14.121c-0.002,0.588-0.006,1.189-0.017,1.747
	c-0.662,0.1-1.394,0.203-2.089,0.3l-0.813,0.114c-8.338,1.173-16.364,4.404-23.21,9.341c-13.597,9.808-21.715,25.663-21.715,42.412
	v42.783c0,4.154,3.367,7.521,7.521,7.521h136.01c4.154,0,7.521-3.367,7.521-7.521v-42.783c0-16.749-8.118-32.604-21.715-42.412
	c-6.845-4.938-14.872-8.168-23.21-9.341l-0.813-0.114c-0.694-0.097-1.426-0.2-2.089-0.3c-0.011-0.557-0.015-1.159-0.017-1.747
	h14.121c24.623,0,48.359-7.835,67.97-22.011h96.071c4.154,0,7.521-3.367,7.521-7.521V251.895
	C470.717,224.385,470.012,197.974,467.27,173.39z M413.823,245.325c9.035,2.613,15.664,10.953,15.664,20.819
	c0,5.474-2.046,10.7-5.76,14.715c-2.745,2.967-6.148,5.046-9.904,6.119V245.325z M97.897,287.034
	c-9.15-2.539-15.885-10.943-15.885-20.891c0-9.947,6.735-18.351,15.885-20.89C97.897,245.253,97.897,287.034,97.897,287.034z
	 M243.36,407.783h25.28c0.003,1.513,0.023,2.908,0.117,4.209c-11.118,4.263-20.586,1.743-25.496-0.304
	C243.339,410.473,243.357,409.179,243.36,407.783z M283.706,424.726l0.799,0.112c5.928,0.834,11.636,3.133,16.506,6.647
	c9.689,6.988,15.472,18.282,15.472,30.212v35.262h-17.995v-16.787c0-4.154-3.367-7.521-7.521-7.521s-7.521,3.367-7.521,7.521v16.787
	h-54.894v-16.787c0-4.154-3.367-7.521-7.521-7.521s-7.521,3.367-7.521,7.521v16.787h-17.995v-35.262
	c0-11.929,5.784-23.224,15.472-30.212c4.871-3.514,10.579-5.812,16.506-6.647l0.799-0.112c1.969-0.275,3.779-0.53,5.43-0.934
	c3.838,2.023,12.127,5.596,22.826,5.596c6.686,0,14.309-1.404,22.362-5.449C280.391,424.261,281.988,424.486,283.706,424.726z"/>
<g>
</g>
<g>
</g>
<g>
</g>
<g>
</g>
<g>
</g>
<g>
</g>
<g>
</g>
<g>
</g>
<g>
</g>
<g>
</g>
<g>
</g>
<g>
</g>
<g>
</g>
<g>
</g>
<g>
</g>
</svg>
